<svg width="25" height="25" viewBox="0 0 25 25" fill="none" xmlns="http://www.w3.org/2000/svg">
<path d="M24.763 23.6399L18.3084 17.2884C19.9987 15.452 21.0372 13.0234 21.0372 10.3509C21.0364 4.63387 16.3275 0 10.5183 0C4.70916 0 0.000244141 4.63387 0.000244141 10.3509C0.000244141 16.0678 4.70916 20.7017 10.5183 20.7017C13.0283 20.7017 15.3304 19.8335 17.1387 18.3902L23.6183 24.7667C23.934 25.0777 24.4466 25.0777 24.7623 24.7667C25.0788 24.4557 25.0788 23.9509 24.763 23.6399ZM10.5183 19.1092C5.60314 19.1092 1.6186 15.1879 1.6186 10.3509C1.6186 5.51376 5.60314 1.59254 10.5183 1.59254C15.4336 1.59254 19.4181 5.51376 19.4181 10.3509C19.4181 15.1879 15.4336 19.1092 10.5183 19.1092Z" fill="#0C0C0C"/>
</svg>
